<?xml version="1.0" encoding="utf-8"?>
<!-- Generator: Adobe Illustrator 19.0.0, SVG Export Plug-In . SVG Version: 6.00 Build 0)  -->
<svg version="1.1" id="Calque_1" xmlns="http://www.w3.org/2000/svg" xmlns:xlink="http://www.w3.org/1999/xlink" x="0px" y="0px"
	 viewBox="0 0 2885.4 1283.7" style="enable-background:new 0 0 2885.4 1283.7;" xml:space="preserve">
<style type="text/css">
	.st0{clip-path:url(#SVGID_2_);fill:url(#SVGID_3_);}
	.st1{clip-path:url(#SVGID_5_);fill:url(#SVGID_6_);}
	.st2{clip-path:url(#SVGID_8_);fill:url(#SVGID_9_);}
	.st3{clip-path:url(#SVGID_11_);fill:url(#SVGID_12_);}
	.st4{clip-path:url(#SVGID_14_);fill:url(#SVGID_15_);}
	.st5{clip-path:url(#SVGID_17_);fill:url(#SVGID_18_);}
	.st6{clip-path:url(#SVGID_20_);fill:url(#SVGID_21_);}
	.st7{clip-path:url(#SVGID_23_);fill:url(#SVGID_24_);}
	.st8{clip-path:url(#SVGID_26_);fill:url(#SVGID_27_);}
	.st9{clip-path:url(#SVGID_29_);fill:url(#SVGID_30_);}
	.st10{clip-path:url(#SVGID_32_);fill:url(#SVGID_33_);}
	.st11{clip-path:url(#SVGID_35_);fill:url(#SVGID_36_);}
	.st12{clip-path:url(#SVGID_38_);fill:url(#SVGID_39_);}
	.st13{clip-path:url(#SVGID_41_);fill:url(#SVGID_42_);}
	.st14{clip-path:url(#SVGID_44_);fill:url(#SVGID_45_);}
	.st15{clip-path:url(#SVGID_47_);fill:url(#SVGID_48_);}
	.st16{fill:#005D92;}
</style>
<g>
	<g>
		<defs>
			<path id="SVGID_1_" d="M391.3,790.5c-6.1,1.2-12.9,3-20,5.3c-7.2,2.4-14.7,5.3-22.4,8.8c-1.8,0.8-3.6,1.7-5.4,2.5
				c-1.8,0.9-3.6,1.8-5.5,2.7c-1.8,0.9-3.7,1.9-5.5,2.8c-1.8,1-3.7,2-5.5,3c-9.7,5.5-18.4,11.1-25.8,16.7
				c-7.4,5.6-13.5,11.1-18,16.2c-4.5,5.1-7.3,9.9-8.2,13.9c-0.9,4.1,0.2,7.3,3.6,9.6c2.7,1.8,6.8,2.8,11.7,3c5,0.2,11-0.4,17.6-1.6
				c6.6-1.2,13.9-3.2,21.6-5.8c7.6-2.6,15.6-5.8,23.6-9.5c1.9-0.9,3.8-1.8,5.7-2.7c1.9-0.9,3.8-1.9,5.6-2.9c1.9-1,3.7-2,5.6-3
				c1.8-1,3.7-2.1,5.5-3.2c9.6-5.7,18-11.5,24.9-17.1c6.8-5.6,12.3-11,16.1-15.9c3.8-4.9,5.9-9.4,6.3-13.1c0.4-3.7-1-6.7-4.3-8.7
				c-2.7-1.6-6.5-2.5-11.1-2.6c-0.6,0-1.1,0-1.7,0C401.6,789,396.7,789.5,391.3,790.5 M102,800.8c-6.2,5-9,8.5-7.8,10.1
				c4.3,5.6-0.3,22.3,39.4,15.5c24.9-4.2,222.1-56,249.7-62.4c100.1-23,98.7,28.6,89.8,42.6c-9.2,14.3-29.6,31.8-54.5,49.8
				c-25.6,18.4-56.1,37.4-83.7,54.1c-28.3,17-53.3,31.5-66.4,40.4c-5.1,3.4-10,8.1-13.4,12.6c-3.5,4.6-5.6,9.2-5.2,12.4
				c0.5,3.2,3.6,5.1,10.5,4.4c6.9-0.7,17.6-4.1,33.1-11.4c6.1-2.9,12.9-6.3,20.4-10.4c7.5-4.1,15.8-8.8,24.9-14.3
				c9-5.4,18.7-11.6,29.3-18.5c10.4-6.9,21.7-14.4,33.6-22.8c17-11.9,33.6-23,49.8-33.3c15.9-10.2,31.5-19.8,46.7-28.7
				c14.9-8.8,29.5-17,43.7-24.6c14-7.6,27.6-14.6,40.7-21.1c13.3-6.6,26.1-12.8,38.5-18.4c12.2-5.6,24-10.8,35.2-15.6
				c11.2-4.8,21.8-9.2,31.8-13.2c10-4,19.4-7.7,28.3-11.1c8.8-3.4,16.9-6.4,24.4-9.2c7.5-2.8,14.2-5.3,20.3-7.6
				c6-2.3,11.4-4.4,15.9-6.3c4.5-1.9,14.5-5.6,11.2-5.1c-59.6,8.2-59.7,2.9-58.7,1.5c1-1.4,65.9-8.6,64.6-9.8
				c-1.3-1.1-3.8-2.1-7.6-3.1c-3.8-0.9-8.9-1.8-15.4-2.7c-45.2-6-88.6-2.4-129.9-5.3c-13.3-0.9-26.9-1.3-40.7-1.3
				C381.9,688,107.8,796.1,102,800.8"/>
		</defs>
		<clipPath id="SVGID_2_">
			<use xlink:href="#SVGID_1_"  style="overflow:visible;"/>
		</clipPath>
		
			<linearGradient id="SVGID_3_" gradientUnits="userSpaceOnUse" x1="428.0786" y1="749.0789" x2="435.2192" y2="749.0789" gradientTransform="matrix(-20.0041 112.0532 120.5918 54.5734 -81251.4609 -88425.9688)">
			<stop  offset="0" style="stop-color:#FFFFFF"/>
			<stop  offset="9.696960e-002" style="stop-color:#FFFFFF"/>
			<stop  offset="0.497" style="stop-color:#D0CFCE"/>
			<stop  offset="1" style="stop-color:#D0CFCE"/>
		</linearGradient>
		<polygon class="st0" points="843.8,709.9 742.9,1275.2 44.6,959.2 145.5,393.9 		"/>
	</g>
	<g>
		<defs>
			<path id="SVGID_4_" d="M665.7,533.6c-4.5,0.3-8.9,0.9-12.9,1.7c-4,0.9-7.7,2-10.8,3.4c-0.6,0.3-1.2,0.6-1.8,0.9
				c-0.6,0.3-1.1,0.6-1.6,0.9c-0.5,0.3-1,0.6-1.5,1c-0.5,0.3-0.9,0.7-1.3,1c-2.7,2.2-4.1,4.5-4.4,6.8c-0.3,2.3,0.5,4.7,2.4,7
				c1.8,2.3,4.8,4.5,8.6,6.4c3.8,1.9,8.6,3.6,14.3,4.9c4.7,1.1,9.7,1.8,14.6,2.2c4.9,0.4,9.9,0.4,14.6,0.1c4.7-0.3,9.2-0.9,13.3-1.8
				c4.1-0.9,7.8-2.1,10.9-3.6c0.6-0.3,1.2-0.6,1.7-0.9c0.6-0.3,1.1-0.6,1.6-0.9c0.5-0.3,1-0.7,1.5-1c0.4-0.4,0.9-0.7,1.3-1.1
				c2.5-2.2,3.7-4.6,3.8-7c0-2.4-1-4.8-3.1-7c-2-2.3-5.1-4.4-9-6.2c-3.9-1.8-8.6-3.4-14-4.7c-4.6-1-9.3-1.7-14-2
				c-2.5-0.2-5.1-0.3-7.6-0.3C670,533.4,667.8,533.5,665.7,533.6 M672.2,489.5c-0.1,0-0.1,0.1-0.2,0.1c-0.1,0-0.1,0.1-0.2,0.1
				c-0.1,0-0.1,0.1-0.2,0.1c-0.1,0-0.1,0.1-0.2,0.1c-6.1,3.9-3.7,8.2,2.9,13c6.8,4.9,17.9,10.2,29.3,16.1
				c11.5,6,23.2,12.5,30.5,19.7c7.5,7.3,10.5,15.3,4.2,23.9c-0.9,1.3-2,2.5-3.1,3.7c-1.1,1.2-2.3,2.3-3.6,3.3c-1.3,1-2.6,2-4.1,2.9
				c-1.4,0.9-2.9,1.7-4.5,2.5c-11,5.3-25.1,7.5-40.6,7.7c-15.5,0.2-32.1-1.5-48.1-4c-15.9-2.5-31.1-5.7-44-8.6
				c-12.8-2.8-23.4-5.2-30.2-6.1c-1.5-0.2-3.3-0.3-5.3-0.2c-2,0.1-4.1,0.3-6.2,0.5c-2.1,0.3-4.3,0.7-6.4,1.2c-2,0.5-4,1.1-5.6,1.8
				c-3,1.3-5,2.8-5.4,4.6c-0.4,1.8,0.9,3.8,4.9,6.1c3.9,2.2,10.5,4.6,20.5,7.2c10.1,2.6,23.7,5.2,41.8,8
				c40.9,6.2,73.8,15.5,100.7,26.1c27.6,10.8,49.2,22.8,66.4,33.9c17.7,11.4,30.7,21.7,40.6,28.5c10.1,6.9,16.9,10.2,22,7.4
				c0.9-0.5-44.5-71.4-20.2-50.9c0.8-0.9,14.3,15.4,25.1,45.4c0.7-1.3,1.4-2.9,2.1-4.6c0.6-1.8,1.3-3.7,1.9-6
				c12.5-44.4,7.8-78.3-5.5-104c-12.4-24.5-33-42.3-55.2-54.7c-21.5-12.1-45-19.5-64.4-23.2c-11-2.1-20.8-3.1-28.2-3.1
				C678.5,488,674.4,488.5,672.2,489.5"/>
		</defs>
		<clipPath id="SVGID_5_">
			<use xlink:href="#SVGID_4_"  style="overflow:visible;"/>
		</clipPath>
		
			<linearGradient id="SVGID_6_" gradientUnits="userSpaceOnUse" x1="427.8859" y1="750.4506" x2="435.0192" y2="750.4506" gradientTransform="matrix(-21.2325 104.8774 120.173 52.058 -80384.2422 -83472.5078)">
			<stop  offset="0" style="stop-color:#FFFFFF"/>
			<stop  offset="9.696960e-002" style="stop-color:#FFFFFF"/>
			<stop  offset="0.497" style="stop-color:#D0CFCE"/>
			<stop  offset="1" style="stop-color:#D0CFCE"/>
		</linearGradient>
		<polygon class="st1" points="887.6,504.4 823.9,819 492.9,675.6 556.6,361.1 		"/>
	</g>
	<g>
		<defs>
			<path id="SVGID_7_" d="M1202,755.5c-7,0.1-14.4,0.9-21.9,2.3c-3.1,0.6-6.2,1.3-9.1,2.1c-2.9,0.8-5.7,1.7-8.3,2.7
				c-2.6,1-5.1,2-7.5,3.1c-2.3,1.1-4.5,2.3-6.5,3.5c-2.8,1.7-5.2,3.5-7.2,5.4c-2,1.9-3.7,3.8-4.9,5.8c-1.2,2-1.9,4-2.1,5.9
				c-0.2,2,0.1,4,0.9,5.9c1.5,3.3,4.5,6.2,8.7,8.6c4.2,2.4,9.6,4.2,15.8,5.4c6.2,1.2,13.2,1.8,20.6,1.7c7.4-0.1,15.2-0.9,23-2.5
				c3.3-0.7,6.4-1.4,9.4-2.3c3-0.9,5.8-1.8,8.5-2.8c2.6-1,5.1-2.1,7.4-3.3c2.3-1.2,4.4-2.4,6.3-3.7c2.7-1.8,4.9-3.6,6.7-5.5
				c1.8-1.9,3.3-3.9,4.2-5.8c1-2,1.5-3.9,1.5-5.9c0-2-0.5-3.9-1.5-5.8c-1.8-3.2-4.9-6-9.1-8.2c-4.2-2.2-9.4-3.9-15.4-5
				c-5.3-1-11.2-1.5-17.5-1.5C1203.4,755.5,1202.7,755.5,1202,755.5 M1249.8,698c-14.5,1.9-34.5,6.1-61.9,13.7
				c-43,11.8-84.5,18.5-122.6,21.7c-38.6,3.3-73.2,3.3-102.5,2c-29.4-1.3-53.4-3.7-71.2-5.3c-17.8-1.5-29.5-2.1-34.4,0.3
				c-1.2,0.6-2,1.4-2.4,2.3c-0.4,1,108,29.8,108.4,31.2c0.4,1.4,22.5,34.6-105.8-22.5c1.3,2,3.1,4.3,5.3,6.9
				c34.1,39.6,78,68.3,125.7,88.2c49.3,20.5,100.6,31.1,147.7,35.2c47.3,4.1,89.3,1.6,121.5-3.6c31.8-5.2,53.8-13,62.6-19.5
				c0.9-0.6,1.6-1.2,2.2-1.8c0.6-0.6,1.1-1.2,1.4-1.8c0.3-0.6,0.6-1.1,0.6-1.7c0.1-0.5,0-1-0.2-1.5c-3-7.8-15.4-11.2-32.9-12.7
				c-17.5-1.6-40.4-1.2-64.3-1.5c-24-0.2-49-1-70.3-4.7c-21.2-3.7-38.6-10.3-47.2-21.9c-3.1-4.2-4.9-8.2-5.5-12.1
				c-0.7-3.8-0.2-7.4,1.2-10.7c1.4-3.4,3.8-6.5,6.9-9.6c3.1-3,7-5.8,11.4-8.5c9.9-6,22.8-11.2,36.9-15.7c14-4.5,29.1-8.4,43.7-11.8
				c14.5-3.4,28.5-6.3,40.3-8.7c11.8-2.5,21.4-4.6,27.3-6.4c0.5-0.2,1-0.3,1.5-0.5c0.5-0.2,1-0.4,1.5-0.7c0.5-0.2,1-0.5,1.5-0.8
				c0.5-0.3,0.9-0.6,1.4-0.9c3.7-2.4,6.6-5.7,7.2-8.9c0.6-3.1-1-6-6.3-7.7c-2.9-0.9-6.9-1.4-12.2-1.4
				C1261.9,696.8,1256.4,697.1,1249.8,698"/>
		</defs>
		<clipPath id="SVGID_8_">
			<use xlink:href="#SVGID_7_"  style="overflow:visible;"/>
		</clipPath>
		
			<linearGradient id="SVGID_9_" gradientUnits="userSpaceOnUse" x1="427.8807" y1="753.3341" x2="435.0259" y2="753.3341" gradientTransform="matrix(-21.2321 104.8757 120.171 52.0572 -80326.0391 -83445.9922)">
			<stop  offset="0" style="stop-color:#FFFFFF"/>
			<stop  offset="9.696960e-002" style="stop-color:#FFFFFF"/>
			<stop  offset="0.497" style="stop-color:#D0CFCE"/>
			<stop  offset="1" style="stop-color:#D0CFCE"/>
		</linearGradient>
		<polygon class="st2" points="1357.8,711.2 1286.6,1063.2 821,861.5 892.3,509.5 		"/>
	</g>
	<g>
		<defs>
			<path id="SVGID_10_" d="M809.5,740.7c-0.8,0.8-1.6,1.6-2.5,2.5c-0.9,0.9-1.8,1.9-2.7,3c-0.9,1.1-1.9,2.2-3,3.5
				c-42.7,50.7-69.3,100.8-84.2,148.3c-15.8,50.7-17.4,98.2-10.8,139.6c7.4,43.6,23.8,79.7,41,104.1c18,25.3,35.8,37.5,43.4,33.1
				c0.4-0.2,0.8-0.5,1.2-0.8c0.4-0.2,0.8-0.5,1.1-0.8c0.4-0.3,0.7-0.6,1-0.8c0.3-0.3,0.6-0.6,0.9-1c8-8.3,7.7-23.5,3.7-42.3
				c-3.8-18.3-10.8-39.9-16.8-61.8c-5.7-21.3-10.8-43-10.1-62.3c3.3-85.8,54.6-83.6,74.6-75.1c36.5,15.5,198.2,168.9,199.7,88.2
				c0.1-7.4-203.9-117.8-212.3-228.4c-1.6-20.9-5.9-37.6-8.4-46.9c-2.4-9.1-9.6,35.3-17.5,42.3c-0.3,0.3,0.2-11,0.8-22.3
				C809.4,751.9,809.9,740.7,809.5,740.7C809.6,740.7,809.6,740.7,809.5,740.7"/>
		</defs>
		<clipPath id="SVGID_11_">
			<use xlink:href="#SVGID_10_"  style="overflow:visible;"/>
		</clipPath>
		
			<linearGradient id="SVGID_12_" gradientUnits="userSpaceOnUse" x1="427.7189" y1="751.9963" x2="434.8595" y2="751.9963" gradientTransform="matrix(-7.3324 107.2865 102.5967 43.8999 -73113.3828 -78378.3359)">
			<stop  offset="0" style="stop-color:#FFFFFF"/>
			<stop  offset="9.696960e-002" style="stop-color:#FFFFFF"/>
			<stop  offset="0.497" style="stop-color:#D0CFCE"/>
			<stop  offset="1" style="stop-color:#D0CFCE"/>
		</linearGradient>
		<polygon class="st3" points="1075.9,746.6 1036.5,1323.4 670.2,1166.6 709.7,589.8 		"/>
	</g>
	<g>
		<defs>
			<path id="SVGID_13_" d="M834.6,956.3c-5.1,0.5-9.8,2.2-13.9,5.3c-0.3,0.2-0.5,0.4-0.8,0.6c-0.2,0.2-0.5,0.4-0.7,0.6
				c-0.2,0.2-0.5,0.4-0.7,0.6c-0.2,0.2-0.5,0.4-0.7,0.7c-3.4,3.3-5.9,7.5-7.6,12.3c-1.6,4.8-2.3,10.2-2.1,15.9
				c0.2,5.8,1.4,11.8,3.5,17.9c2.2,6.1,5.3,12.3,9.5,18.2c4.5,6.3,9.8,11.7,15.4,16.1c5.7,4.4,11.7,7.7,17.7,9.7
				c6,2.1,12,2.9,17.5,2.4c5.6-0.5,10.7-2.5,15-5.8c0.3-0.2,0.5-0.4,0.8-0.6c0.3-0.2,0.5-0.4,0.7-0.7c0.3-0.2,0.5-0.5,0.7-0.7
				c0.2-0.2,0.5-0.5,0.7-0.7c3.4-3.7,5.8-8.3,7.1-13.5c1.3-5.1,1.6-10.9,0.8-16.8c-0.7-5.9-2.4-12.1-5-18.2c-2.6-6-6.1-12-10.4-17.7
				c-4.6-6-9.7-11-15.1-14.9c-5.3-3.9-10.9-6.8-16.4-8.6c-4.2-1.4-8.4-2.1-12.5-2.1C836.9,956.1,835.7,956.2,834.6,956.3"/>
		</defs>
		<clipPath id="SVGID_14_">
			<use xlink:href="#SVGID_13_"  style="overflow:visible;"/>
		</clipPath>
		
			<linearGradient id="SVGID_15_" gradientUnits="userSpaceOnUse" x1="427.6999" y1="751.8706" x2="434.8524" y2="751.8706" gradientTransform="matrix(-7.3322 107.2829 102.5932 43.8984 -73114.1563 -78376.5078)">
			<stop  offset="0" style="stop-color:#FFFFFF"/>
			<stop  offset="9.696960e-002" style="stop-color:#FFFFFF"/>
			<stop  offset="0.497" style="stop-color:#D0CFCE"/>
			<stop  offset="1" style="stop-color:#D0CFCE"/>
		</linearGradient>
		<polygon class="st4" points="904.9,959 895.6,1094.7 801.1,1054.2 810.4,918.6 		"/>
	</g>
	<g>
		<defs>
			<path id="SVGID_16_" d="M1124,513.9c-1.8,0.2-3.6,0.5-5.4,0.9c-1.8,0.4-3.6,1-5.4,1.7c-1.8,0.7-3.6,1.5-5.3,2.3
				c-2.2,1.2-4.4,2.5-6.4,4c-2,1.5-4,3.1-5.8,4.9c-1.8,1.8-3.5,3.7-4.9,5.7c-1.5,2-2.8,4.1-3.8,6.3c-1.9,3.9-2.9,7.7-3,11.3
				c-0.1,3.6,0.6,6.9,2.2,9.7c1.5,2.9,3.9,5.2,6.9,7c3,1.8,6.8,2.9,11.1,3.2c1.9,0.1,3.8,0.1,5.8-0.1c1.9-0.2,3.9-0.5,5.8-1
				c1.9-0.5,3.8-1.1,5.7-1.8c1.9-0.7,3.7-1.6,5.5-2.6c2.3-1.2,4.5-2.7,6.6-4.3c2.1-1.6,4-3.3,5.8-5.2c1.7-1.9,3.3-3.8,4.7-5.9
				c1.4-2.1,2.5-4.3,3.4-6.5c1.6-3.9,2.3-7.7,2.1-11.2c-0.1-3.5-1.1-6.6-2.7-9.3c-1.7-2.7-4-4.9-6.9-6.5c-2.9-1.6-6.4-2.6-10.5-2.8
				c-0.7,0-1.3-0.1-2-0.1C1126.3,513.8,1125.1,513.8,1124,513.9 M1069,476.6c-2.1,1-4.3,2.6-6.6,4.7c-2.3,2.2-4.7,4.9-7.2,8.5
				c-2.5,3.5-5,7.9-7.5,13.1c-2.6,5.3-5.2,11.5-7.7,18.8c-10.5,30.2-29.3,57.2-50.8,80.7c-22.5,24.5-47.6,44.8-68.7,60.6
				c-21.7,16.2-38.8,27.5-43.8,33.9c-2.4,3.1-1.7,7.7,1.9,5.8c97.6-51.5,68.5-34.3,39.7-17.1c-14.5,8.7-29,17.4-27,17.2
				c3.9-0.3,8.5-0.8,14-1.5c26.1-3.4,50.5-7.6,73.2-12.5c22.5-4.9,43.2-10.4,62.3-16.4c18.9-6,36.1-12.4,51.8-19.2
				c15.5-6.7,29.4-13.7,41.9-20.8c26.9-15.4,47.2-31.5,62.3-46.7c14.6-14.9,24.2-29.1,30.2-41.3c5.8-12,8.1-22.1,8.1-29.4
				c-0.1-7.1-2.5-11.6-6.4-12.1c-1.3-0.2-2.5-0.2-3.7-0.2c-1.2,0.1-2.5,0.2-3.7,0.5c-1.2,0.3-2.4,0.7-3.6,1.1
				c-1.2,0.5-2.4,1.1-3.6,1.7c-2.5,1.4-5.1,3.2-7.6,5.3c-2.6,2.1-5.2,4.6-7.9,7.3c-2.7,2.7-5.4,5.7-8.2,8.8
				c-2.8,3.1-5.8,6.4-8.8,9.7c-3,3.4-6.2,6.8-9.5,10.2c-3.3,3.4-6.8,6.8-10.4,10.1c-3.6,3.3-7.4,6.5-11.4,9.5c-4,3-8.2,5.8-12.6,8.2
				c-2.6,1.5-5.3,2.8-8.1,4c-2.8,1.2-5.7,2.3-8.6,3.1c-2.9,0.9-5.9,1.6-9,2.2c-3.1,0.5-6.3,0.9-9.5,1.1
				c-19.9,0.9-31.1-4.2-36.5-12.4c-5.3-8.2-5-19.4-2.1-31.1c2.9-11.5,8.1-23.5,13-33.7c4.8-10,9.1-18.4,10.4-23
				c0.4-1.4,0.2-3-0.6-4.6c-0.7-1.5-2-3-3.6-4.1c-1.6-1.1-3.7-1.9-6-2c-0.2,0-0.5,0-0.7,0C1073.9,474.9,1071.6,475.4,1069,476.6"/>
		</defs>
		<clipPath id="SVGID_17_">
			<use xlink:href="#SVGID_16_"  style="overflow:visible;"/>
		</clipPath>
		
			<linearGradient id="SVGID_18_" gradientUnits="userSpaceOnUse" x1="427.8776" y1="752.8407" x2="435.0191" y2="752.8407" gradientTransform="matrix(-21.2327 104.8784 120.1742 52.0586 -80337.3828 -83452.4453)">
			<stop  offset="0" style="stop-color:#FFFFFF"/>
			<stop  offset="9.696960e-002" style="stop-color:#FFFFFF"/>
			<stop  offset="0.497" style="stop-color:#D0CFCE"/>
			<stop  offset="1" style="stop-color:#D0CFCE"/>
		</linearGradient>
		<polygon class="st5" points="1277.9,493.4 1206,848.5 831.4,686.2 903.3,331.1 		"/>
	</g>
	<g>
		<defs>
			<path id="SVGID_19_" d="M737,89.4c-1.8,1.9-3.4,4.7-4.7,8.4c-1.3,3.7-2.3,8.5-2.8,14.5c-0.5,6-0.6,13.2-0.2,21.9
				c0.5,8.8,1.5,19.1,3.3,31.1c7.3,49.5,3.2,95.2-6.1,135.7c-9.7,42.1-24.8,78-38.1,106.2c-6.8,14.5-8.3,16.7-13,26.8
				c-4.7,10.1,34.9-15.6,72.9-62.2c0,0,13.7,5.7-46.6,83.8c-21.8,28.3-5.7,14.9-5.7,14.9c26.3-9.2,50.4-19.4,72.2-30.4
				c21.7-11,41.3-22.7,58.8-35c17.4-12.2,32.7-24.9,46.2-37.8c13.4-12.8,24.9-25.9,34.9-39c21.5-28.3,35.4-56.6,43.8-83
				c8.2-25.7,11.3-49.5,11.2-69.8c-0.1-19.8-3.2-36.2-7.5-47.7c-4.3-11.4-9.7-18-14.5-18.4c-1.6-0.1-3.1-0.1-4.5,0.2
				c-1.4,0.3-2.8,0.7-4,1.3c-1.3,0.6-2.5,1.4-3.6,2.3c-1.1,0.9-2.2,2-3.2,3.2c-2.1,2.6-4,5.8-5.8,9.6c-1.7,3.7-3.3,8-4.8,12.7
				c-1.5,4.7-3,9.7-4.4,15.1c-1.4,5.4-2.9,11-4.4,16.7c-1.5,5.8-3.2,11.7-4.9,17.6c-1.8,5.9-3.8,11.8-6,17.6
				c-2.2,5.8-4.7,11.4-7.5,16.6c-2.8,5.3-6,10.3-9.6,14.7c-2.1,2.7-4.5,5.2-6.9,7.5c-2.5,2.3-5.1,4.4-7.9,6.2
				c-2.8,1.8-5.8,3.4-9,4.7c-3.2,1.3-6.6,2.3-10.2,3c-22,4.2-37.9-2.2-49.2-14.6c-11.2-12.2-17.8-30.1-21.9-49.2
				c-4-18.7-5.6-38.5-6.5-55.5c-0.9-16.6-4.5-53.6-21.6-53.6C742.2,85.7,739.4,86.8,737,89.4"/>
		</defs>
		<clipPath id="SVGID_20_">
			<use xlink:href="#SVGID_19_"  style="overflow:visible;"/>
		</clipPath>
		
			<radialGradient id="SVGID_21_" cx="425.248" cy="752.0952" r="7.1399" gradientTransform="matrix(31.1921 29.9924 29.9924 -31.1921 -35171.4727 10811.8555)" gradientUnits="userSpaceOnUse">
			<stop  offset="0" style="stop-color:#FDD897"/>
			<stop  offset="0.6364" style="stop-color:#FDD897"/>
			<stop  offset="0.9818" style="stop-color:#F18C00"/>
			<stop  offset="1" style="stop-color:#F18C00"/>
		</radialGradient>
		<polygon class="st6" points="811.3,-60.6 1162.3,276.9 822.7,630.1 471.7,292.6 		"/>
	</g>
	<g>
		<defs>
			<path id="SVGID_22_" d="M837.7,142.6c-1.7,0.2-3.5,0.6-5.2,1.2c-1.7,0.6-3.4,1.5-5,2.5c-1.7,1-3.2,2.2-4.8,3.6
				c-2,1.8-3.9,3.9-5.6,6.2c-1.7,2.3-3.3,4.9-4.8,7.8c-1.4,2.8-2.7,5.9-3.8,9.1c-1.1,3.3-1.9,6.7-2.6,10.3
				c-1.1,6.4-1.3,12.7-0.8,18.6c0.5,5.9,1.8,11.4,3.8,16.2c2,4.8,4.7,8.9,7.9,12c3.2,3.1,7,5.1,11.2,5.8c1.8,0.3,3.7,0.4,5.6,0.2
				c1.8-0.2,3.7-0.7,5.5-1.3c1.8-0.7,3.5-1.6,5.2-2.7c1.7-1.1,3.4-2.5,4.9-4c2-1.9,3.9-4.2,5.7-6.7c1.7-2.5,3.3-5.3,4.8-8.3
				c1.4-3,2.6-6.2,3.6-9.6c1-3.3,1.8-6.9,2.3-10.5c0.9-6.5,0.9-12.7,0.2-18.5c-0.7-5.7-2.2-11-4.3-15.5c-2.1-4.5-4.7-8.3-7.9-11.1
				c-3.2-2.8-6.8-4.7-10.8-5.3c-1-0.2-2-0.2-3.1-0.2C839.1,142.4,838.4,142.5,837.7,142.6"/>
		</defs>
		<clipPath id="SVGID_23_">
			<use xlink:href="#SVGID_22_"  style="overflow:visible;"/>
		</clipPath>
		
			<radialGradient id="SVGID_24_" cx="425.2565" cy="752.0897" r="7.1366" gradientTransform="matrix(31.1914 29.9917 29.9917 -31.1914 -35170.7578 10811.2383)" gradientUnits="userSpaceOnUse">
			<stop  offset="0" style="stop-color:#FDD897"/>
			<stop  offset="0.6364" style="stop-color:#FDD897"/>
			<stop  offset="0.9818" style="stop-color:#F18C00"/>
			<stop  offset="1" style="stop-color:#F18C00"/>
		</radialGradient>
		<polygon class="st7" points="834.5,111.5 913.6,187.6 836.9,267.3 757.8,191.2 		"/>
	</g>
	<g>
		<defs>
			<path id="SVGID_25_" d="M285.8,217.5c-0.1,0.1-0.1,0.1-0.2,0.2c-0.1,0.1-0.1,0.1-0.2,0.2c-0.1,0.1-0.1,0.1-0.2,0.2
				c0,0.1-0.1,0.1-0.1,0.2c-4.4,7.6,2.2,13.8,14.6,19.6c12.5,5.9,31,11.6,50,18c19.3,6.5,39.1,14,54,23.4
				c15.1,9.6,25.1,21.3,24.1,36.3c-0.1,2.3-0.5,4.4-0.9,6.5c-0.5,2.1-1.1,4.1-1.9,6c-0.8,1.9-1.7,3.7-2.8,5.5
				c-1.1,1.7-2.3,3.4-3.6,5c-9.4,10.9-25,17.8-43.8,21.9c-18.8,4.1-40.5,5.4-62.1,5.3c-21.5-0.1-42.8-1.5-61-2.8
				c-47.1-10.7-62.5,26.5-28.4,31.8c14.4,1.5,33.2,2.4,57.4,2.3c54.8-0.2,102.2,6.4,143.1,16.3c41.8,10.1,76.9,23.7,105.9,36.9
				c29.6,13.5,52.7,26.4,69.5,34.7c0,0,21.9,12.9,11.9-9.3c-4.2-9.2-9-17.1-41.9-52.4c0,0-32.1-34.6,3.8-13.6
				c27.2,15.9,51.5,61.6,57.3,54.2c-120.9-221.6-281-248.3-329.8-248.3C291.7,215.9,286.5,216.8,285.8,217.5"/>
		</defs>
		<clipPath id="SVGID_26_">
			<use xlink:href="#SVGID_25_"  style="overflow:visible;"/>
		</clipPath>
		
			<radialGradient id="SVGID_27_" cx="419.59" cy="748.9037" r="7.1413" gradientTransform="matrix(22.4782 -15.6204 -15.6204 -22.4782 2699.5071 23778.6191)" gradientUnits="userSpaceOnUse">
			<stop  offset="0" style="stop-color:#B3D9D2"/>
			<stop  offset="0.1818" style="stop-color:#B3D9D2"/>
			<stop  offset="0.7151" style="stop-color:#10A1B0"/>
			<stop  offset="1" style="stop-color:#10A1B0"/>
		</radialGradient>
		<polygon class="st8" points="56.9,307.8 486.7,9.2 762.6,406.3 332.9,704.9 		"/>
	</g>
	<g>
		<defs>
			<path id="SVGID_28_" d="M317.9,277.6c-4.9,0.2-9.6,1-13.7,2.2c-4.2,1.2-7.9,3-10.9,5.2c-0.6,0.4-1.1,0.9-1.7,1.3
				c-0.5,0.5-1,0.9-1.5,1.4c-0.5,0.5-0.9,1-1.4,1.6c-0.4,0.5-0.8,1.1-1.2,1.7c-2.3,3.6-3.2,7.4-2.8,11.4c0.3,4,1.9,8.1,4.6,12
				c2.7,4,6.5,7.8,11.3,11.3c4.8,3.5,10.5,6.6,17,9.1c5.5,2.1,11.1,3.6,16.6,4.5c5.5,0.9,10.9,1.2,16,1c5.1-0.3,9.9-1.1,14.1-2.4
				c4.3-1.3,8-3.2,11-5.6c0.6-0.4,1.1-0.9,1.7-1.4c0.5-0.5,1-1,1.5-1.5c0.5-0.5,0.9-1.1,1.3-1.6c0.4-0.6,0.8-1.1,1.1-1.7
				c2.1-3.7,2.8-7.6,2.2-11.7c-0.6-4-2.4-8.1-5.3-12c-2.9-3.9-6.8-7.6-11.6-11c-4.8-3.3-10.4-6.3-16.8-8.7c-5.4-2-10.8-3.4-16.1-4.2
				c-4.2-0.7-8.3-1-12.2-1C320,277.5,318.9,277.6,317.9,277.6"/>
		</defs>
		<clipPath id="SVGID_29_">
			<use xlink:href="#SVGID_28_"  style="overflow:visible;"/>
		</clipPath>
		
			<radialGradient id="SVGID_30_" cx="419.2359" cy="747.175" r="7.1398" gradientTransform="matrix(27.0501 -9.6836 -9.6836 -27.0501 -3705.5732 24674.2148)" gradientUnits="userSpaceOnUse">
			<stop  offset="0" style="stop-color:#B3D9D2"/>
			<stop  offset="0.1818" style="stop-color:#B3D9D2"/>
			<stop  offset="0.7151" style="stop-color:#10A1B0"/>
			<stop  offset="1" style="stop-color:#10A1B0"/>
		</radialGradient>
		<polygon class="st9" points="264.3,284.7 372.4,246 403.7,333.4 295.6,372.1 		"/>
	</g>
	<g>
		<defs>
			<path id="SVGID_31_" d="M473.2,528.3c-43.7,6.4-83.6,18-120.1,32.9c-36.8,15.1-70.2,33.6-100.1,53.9
				c-30.3,20.5-57.2,42.9-80.2,65.1c-16.1,15.5-30.3,30.8-42.4,45.4c-12.3,14.7-22.5,28.5-30.4,40.8c-8,12.3-13.6,23-16.7,31.1
				c-3.1,8.2-3.7,13.9-1.5,16.2c7.9,8.3,23.3,1.6,43.1-12.5c19.6-14,43.2-35.2,67.9-56.3c24.3-20.7,49.6-41.4,73.5-55.1
				c23.7-13.7,46.2-20.7,65.5-14.7c23.2,7.2,31.3,24,30.1,46.2c-1.3,22.6-12.4,51-27.7,80.6c-15.7,30.3-35.7,62-54,90
				c-18.6,28.5-35.2,52.9-43.1,67.5c-3,5.7-5.2,13.2-6,20.5c-0.8,7.4-0.3,14.5,2,19.4c2.3,4.9,6.5,7.5,12.9,5.8
				c0,0,25.5,3.5,76.2-92.9c6.7-11.4,13.7-23.9,21.1-37.8c10.5-19.6,21.2-38,32-55.2c10.6-17,21.3-32.8,32-47.7
				c10.6-14.7,21.1-28.4,31.6-41.2c10.4-12.7,20.7-24.5,30.9-35.6c10.3-11.2,20.5-21.6,30.4-31.3c9.9-9.6,19.5-18.5,28.8-26.7
				c9.3-8.2,18.2-15.7,26.8-22.7c8.5-6.9,16.7-13.3,24.3-19.1c7.6-5.8,14.7-11.1,21.3-16c0,0,31.2-16.5,25.1-27.2
				c-4.2-7.4-36.4-5.3-103.7,18.4c-18.4,6.5-13.9,1.7-13.9,1.7c4.3-21.2,107.2-44.1,107.9-45.5c-22.5-2.4-44.1-3.5-64.9-3.5
				C524.4,522.6,498.1,524.6,473.2,528.3"/>
		</defs>
		<clipPath id="SVGID_32_">
			<use xlink:href="#SVGID_31_"  style="overflow:visible;"/>
		</clipPath>
		
			<radialGradient id="SVGID_33_" cx="411.8157" cy="751.0453" r="7.1409" gradientTransform="matrix(8.2914 -30.9244 -30.9244 -8.2914 20215.7012 19726.9727)" gradientUnits="userSpaceOnUse">
			<stop  offset="0" style="stop-color:#C04385"/>
			<stop  offset="0.1818" style="stop-color:#C04385"/>
			<stop  offset="0.7151" style="stop-color:#642064"/>
			<stop  offset="1" style="stop-color:#642064"/>
		</radialGradient>
		<polygon class="st10" points="-41.8,975.8 116.9,384.3 754.3,555.2 595.7,1146.7 		"/>
	</g>
	<g>
		<defs>
			<path id="SVGID_34_" d="M298.7,722.4c-4.2,0.3-8.7,1.5-13.4,3.5c-4.7,2-9.6,4.8-14.4,8.3c-4.9,3.5-9.7,7.7-14.4,12.4
				c-1.1,1.1-2.2,2.3-3.3,3.4c-1.1,1.2-2.1,2.4-3.2,3.6c-1,1.3-2.1,2.5-3.1,3.8c-1,1.3-2,2.6-3,4c-5.2,7.3-9.4,14.7-12.5,21.8
				c-3.1,7.2-5.1,14.1-5.9,20.4c-0.8,6.3-0.4,12,1.2,16.7c1.6,4.7,4.5,8.3,8.7,10.5c3.4,1.7,7.4,2.4,11.8,2.1
				c4.4-0.3,9.2-1.7,14.2-3.8c5-2.2,10.1-5.2,15.2-9c5.1-3.8,10.1-8.3,14.9-13.4c1.1-1.2,2.2-2.4,3.3-3.7c1.1-1.3,2.2-2.6,3.2-3.9
				c1.1-1.3,2.1-2.7,3.1-4c1-1.4,2-2.8,3-4.2c5.1-7.5,9-15,11.8-22.1c2.8-7.1,4.4-13.8,4.9-19.8c0.5-6-0.2-11.3-2-15.5
				c-1.8-4.2-4.7-7.5-8.8-9.4c-2.7-1.3-5.7-1.8-9-1.8C300.3,722.3,299.5,722.4,298.7,722.4"/>
		</defs>
		<clipPath id="SVGID_35_">
			<use xlink:href="#SVGID_34_"  style="overflow:visible;"/>
		</clipPath>
		
			<radialGradient id="SVGID_36_" cx="411.9444" cy="752.2671" r="7.1359" gradientTransform="matrix(6.4016 -31.3699 -31.3699 -6.4016 21366.2285 18500.0527)" gradientUnits="userSpaceOnUse">
			<stop  offset="0" style="stop-color:#C04385"/>
			<stop  offset="0.1818" style="stop-color:#C04385"/>
			<stop  offset="0.7151" style="stop-color:#642064"/>
			<stop  offset="1" style="stop-color:#642064"/>
		</radialGradient>
		<polygon class="st11" points="203,828.9 228.6,703.4 343.1,726.8 317.5,852.3 		"/>
	</g>
	<g>
		<defs>
			<path id="SVGID_37_" d="M670.5,544.8c-20.8,15.2,4.2,145.7,4.2,145.7c0,14.3-12.7,16.1-18.9-16.6c-8.7-46.3-5.6-115.3-6.2-113.9
				c-0.9,1.8-1.7,3.7-2.7,5.8c-36.9,83.9-48.9,164.8-44.6,240.3c4.6,80.4,27.6,154.2,58.5,217.3c32.6,66.5,73.2,120.1,108.6,155.8
				c36.5,36.8,66.2,53.4,74.6,45.6c0.4-0.4,0.9-0.9,1.3-1.3c0.4-0.4,0.8-0.9,1.1-1.4c0.4-0.5,0.7-1,1-1.5c0.3-0.5,0.6-1,0.9-1.5
				c7.1-13.9-0.3-37.4-14.4-65.9c-13.7-27.9-33.7-60.4-52.4-93.5c-18.3-32.2-35.4-65-44.7-95c-9.1-29.3-10.8-56.1,1.1-77.6
				c0.1-0.2,0.2-0.4,0.3-0.6c0.1-0.2,0.2-0.4,0.3-0.6c0.1-0.2,0.2-0.4,0.3-0.6c0.1-0.2,0.2-0.4,0.4-0.6
				c14.8-24.8,36.3-31.3,61.3-26.8c25.2,4.6,54.3,20.5,83.8,41c30.2,21,60.9,47,88,70.5c27.7,24.1,51.3,45.5,65.9,55.9
				c3.6,2.6,8,4.8,12.7,6.4c4.7,1.6,9.6,2.7,14.3,3.1c4.7,0.4,9.1,0,12.8-1.3c3.6-1.3,6.5-3.4,8-6.6c1.8-3.9,1.7-9.3-1.3-16.5
				c-3-7.2-8.8-16.1-18.2-27c-9.4-10.8-22.3-23.5-39.6-38.4c-17-14.6-38.3-31.2-64.3-50C891,843.5,838.3,791.4,799.1,743.9
				c-37.5-45.4-63-86.9-81.2-120.3c-12.2-22.4-20.8-41.7-28.7-55.5C677.4,547.3,673,544,671.4,544
				C670.6,544,670.5,544.8,670.5,544.8"/>
		</defs>
		<clipPath id="SVGID_38_">
			<use xlink:href="#SVGID_37_"  style="overflow:visible;"/>
		</clipPath>
		
			<radialGradient id="SVGID_39_" cx="412.0383" cy="743.8737" r="7.1408" gradientTransform="matrix(12.3968 -41.1893 -41.1893 -12.3968 26193.8516 27219.0879)" gradientUnits="userSpaceOnUse">
			<stop  offset="0" style="stop-color:#57B0C6"/>
			<stop  offset="0.1576" style="stop-color:#57B0C6"/>
			<stop  offset="0.7151" style="stop-color:#006DA5"/>
			<stop  offset="1" style="stop-color:#006DA5"/>
		</radialGradient>
		<polygon class="st12" points="408.1,1175.3 638.8,408.8 1277.9,601.2 1047.2,1367.7 		"/>
	</g>
	<g>
		<defs>
			<path id="SVGID_40_" d="M805.1,908.8c-6.7,0.7-12.6,3.1-17.2,7.4c-0.3,0.3-0.6,0.5-0.9,0.8c-0.3,0.3-0.5,0.6-0.8,0.9
				c-0.3,0.3-0.5,0.6-0.8,0.9c-0.2,0.3-0.5,0.6-0.7,0.9c-3.6,4.8-5.7,10.8-6.4,17.7c-0.7,6.9,0,14.7,2.1,23
				c2.1,8.3,5.5,17.2,10.2,26.1c4.8,9,10.8,18,18.1,26.6c7.9,9.3,16.4,17.2,25.1,23.6c8.7,6.5,17.6,11.3,26.1,14.4
				c8.5,3.1,16.6,4.4,23.8,3.7c7.2-0.7,13.4-3.4,18.1-8.2c0.3-0.3,0.5-0.6,0.8-0.9c0.3-0.3,0.6-0.6,0.8-1c0.3-0.3,0.5-0.6,0.8-1
				c0.3-0.3,0.5-0.7,0.7-1c3.5-5.3,5.4-11.9,5.7-19.4c0.3-7.4-0.9-15.7-3.5-24.4c-2.6-8.6-6.5-17.6-11.7-26.5
				c-5.1-8.8-11.5-17.6-18.9-25.8c-7.9-8.8-16.3-16.1-24.7-22c-8.3-5.8-16.7-10.1-24.7-12.9c-6.4-2.2-12.6-3.3-18.2-3.3
				C807.7,908.6,806.4,908.7,805.1,908.8"/>
		</defs>
		<clipPath id="SVGID_41_">
			<use xlink:href="#SVGID_40_"  style="overflow:visible;"/>
		</clipPath>
		
			<radialGradient id="SVGID_42_" cx="412.045" cy="743.8954" r="7.1412" gradientTransform="matrix(12.3971 -41.1901 -41.1901 -12.397 26194.709 27220.043)" gradientUnits="userSpaceOnUse">
			<stop  offset="0" style="stop-color:#57B0C6"/>
			<stop  offset="0.1576" style="stop-color:#57B0C6"/>
			<stop  offset="0.7151" style="stop-color:#006DA5"/>
			<stop  offset="1" style="stop-color:#006DA5"/>
		</radialGradient>
		<polygon class="st13" points="737.1,1043.4 788.8,871.8 951.7,920.8 900,1092.4 		"/>
	</g>
	<g>
		<defs>
			<path id="SVGID_43_" d="M1126.4,389.9c-16.2,5.6-37.9,15.7-66.6,32.5c-44.7,26.1-89.7,44-132.3,56.3
				c-42.9,12.4-82.9,19-117.4,22.8c-34.5,3.8-63.5,4.7-84.8,5.8c-1.3,0.1-2.6,0.1-3.9,0.2c0,0-27.7,1.9,29.4,15.1
				c57.1,13.2,101.8,33.2,77.1,36.1c-24.7,2.9-73.3-10.8-102.8-24c-29.5-13.2-38-7.5-22.3,5.7C764,593.5,829.2,628.2,893.1,649
				c65.5,21.3,127.9,27.2,182.5,24.2c54.8-3,100.8-15,134.9-29c33.8-13.9,55.6-29.9,63-41.4c0.7-1.1,1.3-2.2,1.7-3.2
				c0.5-1,0.7-2,0.9-2.9c0.2-0.9,0.2-1.8,0.1-2.6c-0.1-0.8-0.4-1.6-0.8-2.3c-6.6-11.1-22.2-13.9-42.9-12.8c-20.7,1.1-46.7,6-74,10.3
				c-27.4,4.3-56.1,8-82.1,6.6c-25.8-1.4-48.6-7.9-64.1-23.8c-5.6-5.8-9.6-11.4-12.2-17c-2.6-5.6-3.8-11.1-3.8-16.4
				c0-5.3,1.1-10.6,3.2-15.7c2.1-5.1,5.1-10.1,9-15c8.6-10.9,21-21.2,35.1-30.8c14.1-9.5,29.9-18.3,45.3-26.2
				c15.4-7.9,30.5-14.9,43.2-20.9c12.7-6,23.1-11,29.3-14.9c0.5-0.3,1.1-0.7,1.5-1.1c0.5-0.4,1-0.8,1.5-1.3c0.5-0.5,0.9-0.9,1.4-1.5
				c0.4-0.5,0.9-1,1.3-1.6c3.2-4.3,5.2-9.9,4.5-14.7c-0.7-4.8-3.9-8.8-11-10.3c-1.8-0.4-4-0.6-6.4-0.6
				C1147.5,384,1138.4,385.7,1126.4,389.9"/>
		</defs>
		<clipPath id="SVGID_44_">
			<use xlink:href="#SVGID_43_"  style="overflow:visible;"/>
		</clipPath>
		
			<radialGradient id="SVGID_45_" cx="432.4731" cy="754.9146" r="7.1407" gradientTransform="matrix(15.1961 39.9896 39.9896 -15.1961 -35796.0742 -5396.4634)" gradientUnits="userSpaceOnUse">
			<stop  offset="0" style="stop-color:#D46B9B"/>
			<stop  offset="0.2909" style="stop-color:#D46B9B"/>
			<stop  offset="0.7151" style="stop-color:#BC073D"/>
			<stop  offset="1" style="stop-color:#BC073D"/>
		</radialGradient>
		<polygon class="st14" points="1202,188.4 1373.3,639.3 761.4,871.8 590.1,420.9 		"/>
	</g>
	<g>
		<defs>
			<path id="SVGID_46_" d="M1119.1,480.5c-7.6,0.4-15.4,1.9-23.3,4.5c-3.3,1.1-6.5,2.3-9.5,3.7c-3,1.4-5.9,2.9-8.6,4.5
				c-2.7,1.6-5.2,3.4-7.6,5.3c-2.4,1.9-4.5,3.8-6.5,5.9c-2.7,2.8-5,5.8-6.9,8.8c-1.9,3.1-3.4,6.2-4.3,9.4c-1,3.2-1.4,6.4-1.4,9.6
				c0.1,3.2,0.7,6.4,1.9,9.4c2.1,5.3,5.7,9.8,10.5,13.4c4.8,3.6,10.8,6.3,17.6,8c6.8,1.7,14.3,2.4,22.2,1.9c7.9-0.5,16.1-2,24.2-4.8
				c3.4-1.2,6.6-2.5,9.7-4c3.1-1.5,6-3.1,8.7-4.8c2.7-1.7,5.2-3.6,7.5-5.5c2.3-1.9,4.4-4,6.3-6.1c2.6-2.9,4.8-5.9,6.6-9
				c1.8-3.1,3-6.2,3.8-9.4c0.8-3.2,1.1-6.3,0.9-9.4c-0.2-3.1-1-6.2-2.3-9.1c-2.3-5.1-6.1-9.4-10.9-12.8c-4.8-3.4-10.7-5.9-17.2-7.5
				c-5.2-1.3-10.9-1.9-16.9-1.9C1122.1,480.4,1120.6,480.4,1119.1,480.5"/>
		</defs>
		<clipPath id="SVGID_47_">
			<use xlink:href="#SVGID_46_"  style="overflow:visible;"/>
		</clipPath>
		
			<radialGradient id="SVGID_48_" cx="432.4581" cy="754.9214" r="7.137" gradientTransform="matrix(15.1963 39.9903 39.9903 -15.1963 -35796.6367 -5395.8877)" gradientUnits="userSpaceOnUse">
			<stop  offset="0" style="stop-color:#D46B9B"/>
			<stop  offset="0.2909" style="stop-color:#D46B9B"/>
			<stop  offset="0.7151" style="stop-color:#BC073D"/>
			<stop  offset="1" style="stop-color:#BC073D"/>
		</radialGradient>
		<polygon class="st15" points="1156,440.5 1199.3,554.5 1066.1,605.1 1022.8,491.1 		"/>
	</g>
	<polygon points="1037.7,902.5 1037.7,888.6 1037.7,763.8 1016.5,763.8 1016.5,745.9 1156.6,745.9 1156.6,790.1 1137.5,790.1 
		1137.5,763.8 1059.5,763.8 1059.5,813.4 1128,813.4 1128,831.6 1059.5,831.6 1059.5,884.5 1141.6,884.5 1156.9,884.5 1156.9,902.5 
			"/>
	<path d="M1260.8,902.5v-12.1c-2.3,1.6-4.6,3-6.9,4.2c-2.4,1.2-4.8,2.5-7.4,3.8c-8.3,3.9-16.9,5.8-26,5.8c-10.2,0-18.3-2.9-24.3-8.7
		c-6.2-6-9.2-14-9.2-24v-72.8h-20.2v-19.2h40.8v89.8c0,5,1.2,8.9,3.6,11.7c2.6,2.6,6.3,3.9,11.2,3.9c6.5,0,13.4-1.9,20.6-5.8
		c6.8-3.7,12.7-7.9,17.7-12.6v-71.9v-15h20.6v103.9h19.9v18.9L1260.8,902.5z"/>
	<path d="M1431.5,798.3V901c0,16.8-5.9,30.3-17.7,40.5c-11.3,10.2-26.1,15.3-44.4,15.3c-2.4,0-5.4-0.3-9-0.9
		c-3.6-0.6-6.9-1.2-10.1-1.9c-3.2-0.7-7-1.7-11.5-2.8l5.1-18.7c1,0.3,2.6,0.7,4.7,1.2c2.2,0.5,4.6,1,7.3,1.6c2.7,0.6,5.3,1,7.9,1.5
		c2.6,0.4,4.8,0.6,6.6,0.6c6.3,0,11.9-0.8,16.8-2.4c4.9-1.6,9.1-4,12.9-7c7.3-5.8,10.9-14.4,10.9-25.7v-16.3
		c-3.9,4.5-8.7,8.3-14.6,11.4c-9.1,4.5-18.1,6.8-27.2,6.8c-17.2,0-31.7-5.9-43.5-17.7c-11.7-11.8-17.5-26.6-17.5-44.4
		c0-18.3,5.8-33.7,17.5-46.4c12-12.9,26.5-19.4,43.5-19.4c8.4,0,16.8,2,25.2,6.1c2.9,1.5,5.7,3.4,8.4,5.7c2.7,2.3,5.4,5.1,8.1,8.4
		v-17h41.8v18.9H1431.5z M1398.7,808.5c-7.9-8.9-17.6-13.3-28.9-13.3c-11.8,0-21.5,4.4-28.9,13.1c-7.9,8.9-11.9,19.8-11.9,32.8
		c0,13.3,3.8,23.9,11.4,32c7.8,8.2,17.5,12.4,29.1,12.4c11.5,0,21.2-4.2,29.1-12.6c8.1-8.6,12.1-19.2,12.1-31.8
		C1410.8,828.1,1406.8,817.2,1398.7,808.5"/>
	<path d="M1544.1,767.8l-49.8-29.1l22.2-9.1l44.5,31L1544.1,767.8z"/>
	<path d="M1681.3,904.4v-14.8v-75.5c0-5.5-1.3-9.5-3.9-12.1c-2.8-2.7-6.6-4.1-11.7-4.1c-6.3,0-13,1.8-20.2,5.3
		c-3.6,1.8-6.8,3.7-9.8,5.7c-3,2-5.8,4.3-8.4,6.7v69.9h18.7v18.9h-39.3v-14.8v-89.1h-20.9v-18.9h41.5v11.2c2.4-1.8,4.9-3.4,7.4-4.9
		c2.5-1.5,5.1-2.7,7.9-3.9c8.3-3.7,16.4-5.6,24.5-5.6c10.5,0,18.9,3.1,25,9.2c6.5,6.3,9.7,14.6,9.7,25v72.8h18.2v18.9H1681.3z"/>
	<path d="M1746.6,847.6c1.1,10.7,5.2,19.7,12.1,26.9c8.4,8.7,19.1,13.1,32,13.1c2.3,0,5-0.4,8.1-1.2c3.2-0.8,6.3-1.7,9.3-2.7
		c3.1-1,5.9-2,8.4-2.9c2.5-1,4.3-1.7,5.5-2.2l5.3,17c-5.5,2.1-10.3,3.8-14.3,5.1c-4.1,1.3-8.3,2.5-12.6,3.5c-4.4,1-8.2,1.6-11.4,1.6
		c-18.3,0-33.4-6.1-45.4-18.5c-12-12.1-18-27.6-18-46.4c0-18.8,5.9-34.2,17.7-46.1c11.7-12.4,26.6-18.7,44.7-18.7
		c17.6,0,32.2,6.1,43.7,18.2c5.7,6,10,13.3,12.9,21.8c2.9,8.6,4.7,19,5.3,31.3H1746.6z M1827.7,828.9c-2.1-9.4-6.2-17.2-12.4-23.3
		c-7.1-7.1-16.4-10.7-27.9-10.7c-11.8,0-21.7,4.4-29.6,13.1c-5,5.5-8.5,12.4-10.4,20.6h80.4V828.9z"/>
	<polygon points="2082.8,902.5 2082.8,888.6 2082.8,775.2 2025,902.5 2017,902.5 1959.7,775 1959.7,884.5 1979.4,884.5 
		1979.4,902.5 1940.1,902.5 1940.1,888.6 1940.1,763.8 1918.7,763.8 1918.7,745.9 1967.7,745.9 2022.1,864.3 2076,745.9 
		2125.3,745.9 2125.3,763.8 2104.7,763.8 2104.7,884.5 2125.3,884.5 2125.3,902.5 	"/>
	<path d="M2217.5,902.5v-12.1c-4.7,3.4-9.6,6.2-14.8,8.5c-8.1,3.6-15.6,5.3-22.6,5.3c-11.5,0-21-3.7-28.4-11.2
		c-7.6-7.6-11.4-16.6-11.4-26.9c0-11.3,4.4-20.8,13.1-28.4c8.6-7.4,19.8-11.2,33.8-11.2c2.6,0,5.3,0.2,8.1,0.6
		c2.8,0.4,5.8,1,8.9,1.8c2.3,0.5,4.5,1.1,6.7,2c2.2,0.8,4.4,1.7,6.7,2.7v-20.6c0-3.7-0.5-6.8-1.6-9.1c-1-2.3-2.7-4.2-5-5.5
		c-2.3-1.6-5.1-2.9-8.5-3.8c-3.4-0.9-7.2-1.3-11.4-1.3c-2.3,0-4.9,0.3-7.8,0.8c-2.9,0.6-5.7,1.3-8.4,2.1c-2.7,0.8-5.1,1.6-7.3,2.4
		c-2.2,0.8-3.8,1.4-4.7,1.7l-6.1-14.8c4.7-1.9,8.8-3.5,12.4-4.6c3.6-1.1,7.3-2.2,11.3-3.2c4-1,7.6-1.5,10.8-1.5
		c14.7,0,26.1,3,34.2,9c8.4,6.3,12.6,15.5,12.6,27.7v70.4h19.2v18.9L2217.5,902.5z M2217.5,852.4c-2-1.1-3.9-2.1-6-3
		c-2-0.9-4.2-1.7-6.4-2.5c-5.2-2-10.4-2.9-15.5-2.9c-4.9,0-9,0.6-12.5,1.8c-3.5,1.2-6.3,2.9-8.6,5c-4.9,4.4-7.3,9.8-7.3,16.3
		c0,5.2,1.9,9.6,5.6,13.4c4,4,9.4,6.1,16,6.1c6,0,12.3-1.7,18.9-5.1c6.3-3.2,11.6-7,15.8-11.4V852.4z"/>
	<path d="M2346.9,796.4c-8.3,0-15.1,0.8-20.6,2.4c-5.5,1.6-10,4-13.6,7c-7,6.2-10.4,16.2-10.4,30.1v47.3h23.5v19.2h-44.2v-15v-88.9
		h-21.9v-19.2h42.5v12.1c1.3-1.6,2.7-3.1,4.4-4.5c1.6-1.4,3.3-2.5,5.1-3.5c4.7-2.4,10.3-4.3,17-5.7c6.6-1.4,12.7-1.9,18.2-1.6
		l8.5,0.2v19.9H2346.9z"/>
	<path d="M2482.9,796.8v142v15h-41.3V935h20.6v-46.4c-4.2,4.7-8.7,8.3-13.6,10.9c-8.4,4.2-17,6.3-25.7,6.3
		c-18.5,0-33.3-6.1-44.4-18.4c-11.3-12.3-17-27.9-17-46.9c0-18,5.7-33.1,17.2-45.4c11.7-12.6,26-18.9,43-18.9
		c4.4,0,8.6,0.5,12.9,1.6c4.2,1.1,8.4,2.6,12.6,4.7c5.3,2.6,10.3,6.4,14.8,11.4v-16h42.2v18.9H2482.9z M2463,840.6
		c0-7.1-1-13.4-2.9-18.8c-1.9-5.4-4.8-10.2-8.5-14.2c-7.8-8.2-17.3-12.4-28.6-12.4c-12.1,0-22,4.2-29.6,12.6
		c-7.9,8.9-11.9,19.9-11.9,33c0,13.6,3.7,24.6,11.2,33c7.6,8.4,17.3,12.6,29.1,12.6c11.8,0,21.6-4.1,29.4-12.4
		c7.8-8.3,11.6-19.4,11.6-33.5H2463z"/>
	<path d="M2596.5,902.5v-12.1c-2.3,1.6-4.6,3-6.9,4.2c-2.4,1.2-4.8,2.5-7.4,3.8c-8.3,3.9-16.9,5.8-26,5.8c-10.2,0-18.3-2.9-24.3-8.7
		c-6.2-6-9.2-14-9.2-24v-72.8h-20.2v-19.2h40.8v89.8c0,5,1.2,8.9,3.6,11.7c2.6,2.6,6.3,3.9,11.2,3.9c6.5,0,13.4-1.9,20.6-5.8
		c6.8-3.7,12.7-7.9,17.7-12.6v-71.9v-15h20.6v103.9h19.9v18.9L2596.5,902.5z"/>
	<path d="M2660.8,902.5l-0.5-10.9v-93h-20.1v-19.2h40.8v103.9h19.7v19.2H2660.8z M2676.9,750.5c-1.3,1.3-2.7,2.3-4.4,3
		c-1.6,0.7-3.3,1.1-5.1,1.1c-1.9,0-3.7-0.4-5.3-1.1c-1.6-0.7-3.1-1.7-4.4-3c-2.8-2.8-4.1-6-4.1-9.7c0-3.9,1.4-7.2,4.1-9.9
		c1.3-1.3,2.7-2.3,4.4-3c1.6-0.7,3.3-1.1,5.1-1.1c1.9,0,3.7,0.4,5.3,1.1c1.6,0.7,3.1,1.7,4.4,3c2.7,2.8,4.1,6,4.1,9.7
		C2681,744.4,2679.6,747.7,2676.9,750.5"/>
	<path d="M2788.1,895.7c-8.9,7-20.3,10.4-34.2,10.4c-7.8,0-14.9-1.5-21.4-4.4c-3.9-1.8-7.3-4-10.2-6.8v7.5h-19.2v-48.1h19.2
		c0.2,6.8,1,12.2,2.4,16.1c1.5,4,3.6,7.2,6.6,9.8c5.8,5.3,13.7,8,23.5,8c7.8,0,14.3-1.9,19.7-5.8c5-3.9,7.5-8.5,7.5-13.8
		c0-3.1-0.4-5.5-1.3-7.4c-0.9-1.9-2.2-3.4-4-4.7c-1.9-1.3-4.9-2.6-9-4c-4.1-1.4-9.2-2.6-15.5-3.8c-14.4-2.4-24.9-6.1-31.6-11.2
		c-7.4-5.5-11.2-13.8-11.2-25c0-11,4-19.9,11.9-26.7c7.9-6.5,17.3-9.7,28.2-9.7c5.3,0,10.3,0.7,14.9,2.2c4.6,1.5,8.9,4,13,7.5v-3.2
		h18.7v41h-18.7c-0.2-5.7-0.9-10.2-2.2-13.5c-1.3-3.3-3.2-6.1-5.8-8.4c-5.2-4.9-11.7-7.3-19.4-7.3c-3.6,0-6.6,0.5-9.1,1.5
		c-2.5,1-4.7,2.3-6.4,3.9c-3.7,3.2-5.6,7.3-5.6,12.1c0,2.8,0.4,4.9,1.2,6.6c0.8,1.6,1.9,2.9,3.4,3.9c3.6,2.6,11.2,4.9,22.8,7
		c8.7,1.6,16.1,3.5,22.1,5.7c6,2.2,10.5,4.7,13.6,7.6c6.1,6,9.2,14.2,9.2,24.5C2801.2,879.5,2796.8,888.9,2788.1,895.7"/>
	<path class="st16" d="M2350.3,1047.4h-13.6v31.1h-9.3v-94.1h25.8c7.5,1,13.8,4,18.9,9.2c6.1,6.2,9.2,13.6,9.2,22.2
		c0,8.7-3.1,16.2-9.2,22.3c-4.3,4.2-8.2,6.8-11.8,7.7l21.3,32.7h-11.3L2350.3,1047.4z M2336.7,993.7v44.3h13.1
		c6.1,0,11.3-2.2,15.6-6.5c4.3-4.3,6.5-9.6,6.5-15.7c0-6.1-2.2-11.3-6.5-15.6c-4.3-4.3-9.5-6.5-15.6-6.5H2336.7z"/>
	<polygon class="st16" points="2449.3,984.4 2449.3,993.7 2409.5,993.7 2409.5,1026.8 2449.3,1026.8 2449.3,1036.1 2409.5,1036.1 
		2409.5,1069.2 2449.3,1069.2 2449.3,1078.5 2400.1,1078.5 2400.1,984.4 	"/>
	<polygon class="st16" points="2480.4,984.4 2536.9,1063.6 2536.9,984.4 2546.3,984.4 2546.3,1078.5 2535.3,1078.5 2480.1,1001.2 
		2480.1,1078.5 2470.8,1078.5 2470.8,984.4 	"/>
	<polygon class="st16" points="2577.1,984.4 2633.7,1063.6 2633.7,984.4 2643,984.4 2643,1078.5 2632,1078.5 2576.8,1001.2 
		2576.8,1078.5 2567.5,1078.5 2567.5,984.4 	"/>
	<polygon class="st16" points="2713.7,984.4 2713.7,993.7 2673.8,993.7 2673.8,1026.8 2713.7,1026.8 2713.7,1036.1 2673.8,1036.1 
		2673.8,1069.2 2713.7,1069.2 2713.7,1078.5 2664.5,1078.5 2664.5,984.4 	"/>
	<path class="st16" d="M2761.1,1028.6c-6.7-2.2-12-5.3-16.1-9.3c-4-4-6.1-9-6.1-14.9c0-5.7,2.1-10.7,6.2-14.8
		c4.1-4.2,9.1-6.2,15-6.2c5.8,0,10.8,2.1,15,6.2c2.2,2.2,4.1,5.3,5.4,9.4l-8.5,3.3c-1.1-2.9-2.2-5-3.6-6.3c-2.3-2.3-5.1-3.4-8.4-3.4
		c-3.3,0-6.1,1.2-8.4,3.4c-2.3,2.3-3.5,5.1-3.5,8.4c0,3.3,1.1,6.1,3.4,8.4c2.3,2.3,5.6,4.5,9.8,6.4c7.5,2.4,13.8,6.2,18.9,11.3
		c5.6,5.6,8.4,12.4,8.4,20.3c0,8-2.8,14.7-8.4,20.4c-5.6,5.6-12.4,8.5-20.3,8.5c-8,0-14.8-2.8-20.3-8.5c-4.5-4.5-7.3-10.3-8.3-17.4
		l9-3.2c0.7,6.2,2.6,10.9,5.9,14.1c3.8,3.8,8.5,5.7,13.8,5.7c5.4,0,10-1.9,13.8-5.7c3.8-3.8,5.7-8.4,5.7-13.8
		c0-5.3-1.9-9.9-5.7-13.8C2770.5,1033.5,2766.2,1030.7,2761.1,1028.6"/>
	<path d="M1412.7,691.6c-12,7-25.5,10.5-40.5,10.5c-21.7,0-39.2-6.2-52.5-18.6c-13.6-12.7-20.3-29.1-20.3-49
		c0-20,6.8-36.2,20.3-48.6c13.4-12.6,30.8-18.8,52.3-18.8c9,0,18.4,1.9,28.3,5.6c9.6,3.6,17.8,9.4,24.6,17.6v-9.6h10.3v30.6h-10.3
		c-2.3-10.8-8.6-19.3-19.1-25.3c-10.4-6.1-21.9-9.2-34.3-9.2c-17.6,0-31.9,5.4-43.1,16.1c-11.3,10.8-16.9,24.8-16.9,41.8
		c0,16.7,5.7,30.6,17.1,41.6c11.3,10.8,25.8,16.3,43.7,16.3c13.6,0,25.1-3.1,34.7-9.2c9.9-6.4,17.6-16.8,23.4-31.1l10.1,5.4
		C1433.7,673.2,1424.4,684.6,1412.7,691.6"/>
	<path d="M1461.1,651.8c0.7,12,4.8,21.9,12.2,29.6c8,8.4,18.3,12.6,30.8,12.6c2.1,0,4.7-0.3,7.6-1.1c2.9-0.7,5.7-1.5,8.2-2.2
		c2.6-0.8,5.7-1.9,9.4-3.3l2.6,8.1c-4.2,1.6-7.7,2.8-10.7,3.7c-3,0.9-6.2,1.8-9.7,2.6c-3.4,0.8-6.5,1.2-9.2,1.2
		c-15.1,0-27.6-5.1-37.5-15.2c-9.9-10-14.8-22.8-14.8-38.4c0-15.4,4.9-28.2,14.6-38.3c9.7-10.1,22.1-15.2,37.1-15.2
		c14.6,0,26.5,4.9,35.8,14.8c9.1,9.7,14.1,23.4,15,41.1H1461.1z M1528.2,615.6c-7.1-6.9-16.2-10.3-27.2-10.3
		c-11.6,0-21.1,4.2-28.7,12.6c-5.6,6-9.1,14.1-10.7,24.2h79.3C1539.4,631.4,1535.2,622.6,1528.2,615.6"/>
	<path d="M1640.4,700v-9.6v-66.6c0-5.7-1.5-10.1-4.5-13.1c-3-3.1-7.3-4.7-12.9-4.7c-6,0-12.4,1.7-19.3,5.1c-7,3.6-13,7.7-18,12.4
		v66.8h16.5v9.6h-27.6v-9.6v-82h-18.4v-9.6h29.6v13.7c5.7-5,11.9-9,18.4-12c6.6-3,13.3-4.5,20.3-4.5c8,0,14.5,2.4,19.5,7.1
		c5,5,7.5,11.5,7.5,19.5v67.9h16.1v9.6H1640.4z"/>
	<path d="M1699.7,702.3c-6.1,0-10.7-1.6-13.7-4.7c-3-3.1-4.5-7.9-4.5-14.4v-75h-18v-9.6h18v-22.7l11.1-0.2v22.9h21.2v9.6h-21.2v72.8
		c0,4.2,0.7,7,2.1,8.6c1.4,1.7,3.8,2.6,7.1,2.6l12-1.9v9.6L1699.7,702.3z"/>
	<path d="M1791.2,606.6c-14.6,0-25.4,3.1-32.4,9.2c-7,6.1-10.5,15.8-10.5,29.1v45.4h20.8v9.6h-31.9v-9.6v-82H1718v-9.6h30.4v18
		c0.1-0.3,0.8-1.3,1.8-3c1.1-1.7,2.7-3.8,4.8-6.2c2.1-2.4,4.4-4.3,6.8-5.6c1.9-1,4-1.9,6.4-2.8c2.4-0.9,5-1.5,7.6-2
		c2.6-0.5,5.3-0.9,7.9-1.2c2.6-0.3,5.1-0.3,7.4-0.2l4.1,0.2v10.7H1791.2z"/>
	<path d="M1812.2,651.8c0.7,12,4.8,21.9,12.2,29.6c8,8.4,18.3,12.6,30.8,12.6c2.1,0,4.7-0.3,7.6-1.1c2.9-0.7,5.7-1.5,8.2-2.2
		c2.6-0.8,5.7-1.9,9.4-3.3l2.6,8.1c-4.1,1.6-7.7,2.8-10.7,3.7c-3,0.9-6.2,1.8-9.6,2.6c-3.4,0.8-6.5,1.2-9.2,1.2
		c-15.1,0-27.6-5.1-37.5-15.2c-9.8-10-14.8-22.8-14.8-38.4c0-15.4,4.9-28.2,14.6-38.3c9.7-10.1,22.1-15.2,37.1-15.2
		c14.6,0,26.5,4.9,35.8,14.8c9.1,9.7,14.1,23.4,15,41.1H1812.2z M1879.3,615.6c-7.1-6.9-16.2-10.3-27.2-10.3
		c-11.6,0-21.1,4.2-28.7,12.6c-5.6,6-9.1,14.1-10.7,24.2h79.3C1890.5,631.4,1886.3,622.6,1879.3,615.6"/>
	<path d="M1522.8,905.8"/>
	<path d="M1485,849.4c1.1,10.7,5.2,19.7,12.1,26.9c8.4,8.7,19.1,13.1,32,13.1c2.3,0,5-0.4,8.1-1.2c3.2-0.8,6.3-1.7,9.3-2.7
		c3.1-1,5.9-2,8.4-2.9c2.5-1,4.3-1.7,5.5-2.2l5.3,17c-5.5,2.1-10.3,3.8-14.3,5.1c-4.1,1.3-8.3,2.5-12.6,3.5c-4.4,1-8.2,1.6-11.4,1.6
		c-18.3,0-33.4-6.2-45.4-18.5c-12-12.1-18-27.6-18-46.4c0-18.8,5.9-34.2,17.7-46.1c11.7-12.5,26.6-18.7,44.7-18.7
		c17.6,0,32.2,6.1,43.7,18.2c5.7,6,10,13.3,12.9,21.9c2.9,8.6,4.7,19,5.3,31.3H1485z M1566.1,830.7c-2.1-9.4-6.2-17.2-12.4-23.3
		c-7.1-7.1-16.4-10.7-27.9-10.7c-11.8,0-21.7,4.4-29.6,13.1c-5,5.5-8.5,12.4-10.4,20.6h80.4V830.7z"/>
</g>
</svg>
